<svg xmlns="http://www.w3.org/2000/svg" xmlns:xlink="http://www.w3.org/1999/xlink" width="40" height="40" viewBox="0 0 40 40">
  <defs>
    <linearGradient id="linear-gradient" x1="0.5" x2="0.5" y2="1" gradientUnits="objectBoundingBox">
      <stop offset="0" stop-color="#ff4900"/>
      <stop offset="1" stop-color="#ff206e"/>
    </linearGradient>
  </defs>
  <path id="logo-javascript" d="M32,32V72H72V32ZM53.429,63.071c0,3.894-2.3,5.792-5.629,5.792a5.833,5.833,0,0,1-5.638-3.437l3.061-1.853c.59,1.047,1.038,1.933,2.327,1.933,1.071,0,1.952-.483,1.952-2.362V50.571h3.929Zm8.871,5.7c-3.49,0-5.746-1.575-6.846-3.75l3.065-1.774a4.015,4.015,0,0,0,3.705,2.193c1.557,0,2.462-.689,2.462-1.763,0-1.288-.931-1.745-2.65-2.5l-.939-.4c-2.713-1.154-4.511-2.6-4.511-5.665,0-2.819,2.147-4.878,5.5-4.878a5.481,5.481,0,0,1,5.344,2.918L64.5,55.036a2.553,2.553,0,0,0-2.416-1.607,1.635,1.635,0,0,0-1.8,1.607c0,1.128.7,1.584,2.309,2.282l.939.4c3.2,1.37,4.995,2.768,4.995,5.907C68.529,67.012,65.871,68.774,62.3,68.774Z" transform="translate(-32 -32)" fill="url(#linear-gradient)"/>
</svg>
