<svg xmlns="http://www.w3.org/2000/svg" xmlns:xlink="http://www.w3.org/1999/xlink" width="60" height="47.143" viewBox="0 0 60 47.143">
  <defs>
    <linearGradient id="linear-gradient" x1="0.5" x2="0.5" y2="1" gradientUnits="objectBoundingBox">
      <stop offset="0" stop-color="#ff4900"/>
      <stop offset="1" stop-color="#ff206e"/>
    </linearGradient>
  </defs>
  <path id="mail" d="M84.5,80h-45A7.508,7.508,0,0,0,32,87.5v32.143a7.508,7.508,0,0,0,7.5,7.5h45a7.508,7.508,0,0,0,7.5-7.5V87.5A7.508,7.508,0,0,0,84.5,80ZM82.6,92.406l-19.286,15a2.143,2.143,0,0,1-2.63,0l-19.286-15a2.143,2.143,0,1,1,2.63-3.383L62,103,79.971,89.023a2.143,2.143,0,1,1,2.63,3.383Z" transform="translate(-32 -80)" fill="url(#linear-gradient)"/>
</svg>
