<svg xmlns="http://www.w3.org/2000/svg" xmlns:xlink="http://www.w3.org/1999/xlink" width="60" height="60.003" viewBox="0 0 60 60.003">
  <defs>
    <linearGradient id="linear-gradient" x1="0.5" x2="0.5" y2="1" gradientUnits="objectBoundingBox">
      <stop offset="0" stop-color="#ff4900"/>
      <stop offset="1" stop-color="#ff206e"/>
    </linearGradient>
  </defs>
  <path id="shield-checkmark" d="M91.884,42.629a2.143,2.143,0,0,0-1.761-1.974C78.537,38.576,73.7,37.073,62.89,32.19a2.143,2.143,0,0,0-1.765,0c-10.811,4.883-15.647,6.386-27.233,8.465a2.143,2.143,0,0,0-1.761,1.974A52.613,52.613,0,0,0,35.4,65.3,46.805,46.805,0,0,0,45,80.364,48.977,48.977,0,0,0,61.213,91.846a2.143,2.143,0,0,0,1.607,0A48.977,48.977,0,0,0,79.036,80.364,46.805,46.805,0,0,0,88.612,65.3a52.613,52.613,0,0,0,3.272-22.667ZM74.339,52.688,59.5,69.832a2.143,2.143,0,0,1-1.528.741h-.088a2.143,2.143,0,0,1-1.5-.612L49.793,63.5a2.143,2.143,0,1,1,3-3.062l4.956,4.86L71.1,49.884a2.143,2.143,0,0,1,3.241,2.8Z" transform="translate(-32.007 -32)" fill="url(#linear-gradient)"/>
</svg>
